<svg width="1920" height="1080" viewBox="0 0 1920 1080" fill="none" xmlns="http://www.w3.org/2000/svg">
    <rect width="1920" height="1080" fill="#404041"/>
    <path transform="translate(0, 100)" d="M511.06 60V13.4545H527.878C531.241 13.4545 534.037 13.9848 536.264 15.0455C538.507 16.0909 540.181 17.5227 541.287 19.3409C542.408 21.1591 542.969 23.2197 542.969 25.5227C542.969 27.4167 542.605 29.0379 541.878 30.3864C541.151 31.7197 540.173 32.803 538.946 33.6364C537.719 34.4697 536.348 35.0682 534.832 35.4318V35.8864C536.484 35.9773 538.067 36.4848 539.582 37.4091C541.113 38.3182 542.363 39.6061 543.332 41.2727C544.302 42.9394 544.787 44.9545 544.787 47.3182C544.787 49.7273 544.204 51.8939 543.037 53.8182C541.87 55.7273 540.113 57.2348 537.764 58.3409C535.416 59.447 532.461 60 528.901 60H510.06ZM518.491 52.9545H527.56C530.62 52.9545 532.825 52.3712 534.173 51.2045C535.537 50.0227 536.219 48.5076 536.219 46.6591C536.219 45.2803 535.878 44.0379 535.196 42.9318C534.514 41.8106 533.545 40.9318 532.287 40.2955C531.029 39.6439 529.529 39.3182 527.787 39.3182H518.491V52.9545ZM518.491 33.25H526.832C528.287 33.25 529.598 32.9848 530.764 32.4545C531.931 31.9091 532.848 31.1439 533.514 30.1591C534.196 29.1591 534.537 27.9773 534.537 26.6136C534.537 24.8106 533.901 23.3258 532.628 22.1591C531.37 20.9924 529.499 20.4091 527.014 20.4091H518.491V33.25ZM590.486 25.0909L597.531 37.9773L604.69 25.0909H613.395L602.872 42.5455L613.577 60H604.918L597.531 47.4318L590.213 60H581.486L592.122 42.5455L581.759 25.0909H590.486ZM665.673 60.6818C662.264 60.6818 659.31 59.9318 656.81 58.4318C654.31 56.9318 652.37 54.8333 650.991 52.1364C649.628 49.4394 648.946 46.2879 648.946 42.6818C648.946 39.0758 649.628 35.9167 650.991 33.2045C652.37 30.4924 654.31 28.3864 656.81 26.8864C659.31 25.3864 662.264 24.6364 665.673 24.6364C669.082 24.6364 672.037 25.3864 674.537 26.8864C677.037 28.3864 678.969 30.4924 680.332 33.2045C681.711 35.9167 682.401 39.0758 682.401 42.6818C682.401 46.2879 681.711 49.4394 680.332 52.1364C678.969 54.8333 677.037 56.9318 674.537 58.4318C672.037 59.9318 669.082 60.6818 665.673 60.6818ZM665.719 54.0909C667.567 54.0909 669.113 53.5833 670.355 52.5682C671.598 51.5379 672.522 50.1591 673.128 48.4318C673.749 46.7045 674.06 44.7803 674.06 42.6591C674.06 40.5227 673.749 38.5909 673.128 36.8636C672.522 35.1212 671.598 33.7348 670.355 32.7045C669.113 31.6742 667.567 31.1591 665.719 31.1591C663.825 31.1591 662.249 31.6742 660.991 32.7045C659.749 33.7348 658.817 35.1212 658.196 36.8636C657.59 38.5909 657.287 40.5227 657.287 42.6591C657.287 44.7803 657.59 46.7045 658.196 48.4318C658.817 50.1591 659.749 51.5379 660.991 52.5682C662.249 53.5833 663.825 54.0909 665.719 54.0909ZM718.293 70.1364V53.2273H721.065C721.808 52.6515 722.429 51.8712 722.929 50.8864C723.429 49.8864 723.838 48.7121 724.156 47.3636C724.49 46 724.762 44.4773 724.974 42.7955C725.187 41.0985 725.376 39.2727 725.543 37.3182L726.543 25.0909H751.77V53.2273H757.179V70.1364H749.224V60H726.384V70.1364H718.293ZM729.52 53.2273H743.906V31.7273H733.679L733.134 37.3182C732.83 41.0152 732.429 44.1818 731.929 46.8182C731.429 49.4545 730.626 51.5909 729.52 53.2273ZM843.196 60V25.0909H857.855C861.991 25.0909 865.257 25.9167 867.651 27.5682C870.06 29.2197 871.264 31.5227 871.264 34.4773C871.264 36.4318 870.582 38.0303 869.219 39.2727C867.87 40.5 866.029 41.3258 863.696 41.75C865.529 41.9015 867.135 42.3636 868.514 43.1364C869.908 43.9091 870.999 44.9242 871.787 46.1818C872.575 47.4394 872.969 48.8864 872.969 50.5227C872.969 52.447 872.461 54.1212 871.446 55.5455C870.446 56.9545 868.984 58.053 867.06 58.8409C865.151 59.6136 862.832 60 860.105 60H843.196ZM850.901 53.5227H860.105C861.62 53.5227 862.81 53.1667 863.673 52.4545C864.537 51.7273 864.969 50.7424 864.969 49.5C864.969 48.0606 864.537 46.9318 863.673 46.1136C862.81 45.2803 861.62 44.8636 860.105 44.8636H850.901V53.5227ZM850.901 39.5455H858.014C859.135 39.5455 860.098 39.3864 860.901 39.0682C861.704 38.7348 862.317 38.2727 862.741 37.6818C863.166 37.0758 863.378 36.3561 863.378 35.5227C863.378 34.3258 862.885 33.3864 861.901 32.7045C860.931 32.0227 859.582 31.6818 857.855 31.6818H850.901V39.5455ZM974.861 60.6818C971.376 60.6818 968.384 59.9167 965.884 58.3864C963.399 56.8561 961.482 54.7424 960.134 52.0455C958.8 49.3333 958.134 46.2121 958.134 42.6818C958.134 39.1364 958.815 36.0076 960.179 33.2955C961.543 30.5682 963.467 28.447 965.952 26.9318C968.452 25.4015 971.406 24.6364 974.815 24.6364C977.649 24.6364 980.156 25.1591 982.338 26.2045C984.535 27.2348 986.285 28.697 987.588 30.5909C988.891 32.4697 989.634 34.6667 989.815 37.1818H981.952C981.634 35.5 980.876 34.0985 979.679 32.9773C978.497 31.8409 976.914 31.2727 974.929 31.2727C973.247 31.2727 971.77 31.7273 970.497 32.6364C969.224 33.5303 968.232 34.8182 967.52 36.5C966.823 38.1818 966.474 40.197 966.474 42.5455C966.474 44.9242 966.823 46.9697 967.52 48.6818C968.217 50.3788 969.194 51.6894 970.452 52.6136C971.724 53.5227 973.217 53.9773 974.929 53.9773C976.141 53.9773 977.224 53.75 978.179 53.2955C979.149 52.8258 979.959 52.1515 980.611 51.2727C981.262 50.3939 981.709 49.3258 981.952 48.0682H989.815C989.618 50.5379 988.891 52.7273 987.634 54.6364C986.376 56.5303 984.664 58.0152 982.497 59.0909C980.33 60.1515 977.785 60.6818 974.861 60.6818ZM1036.5 48.8636L1050.48 25.0909H1058.93V60H1050.98V36.2045L1037.05 60H1028.57V25.0909H1036.5V48.8636ZM1114.61 60.6818C1111.13 60.6818 1108.13 59.9167 1105.63 58.3864C1103.15 56.8561 1101.23 54.7424 1099.88 52.0455C1098.55 49.3333 1097.88 46.2121 1097.88 42.6818C1097.88 39.1364 1098.57 36.0076 1099.93 33.2955C1101.29 30.5682 1103.22 28.447 1105.7 26.9318C1108.2 25.4015 1111.16 24.6364 1114.57 24.6364C1117.4 24.6364 1119.91 25.1591 1122.09 26.2045C1124.29 27.2348 1126.04 28.697 1127.34 30.5909C1128.64 32.4697 1129.38 34.6667 1129.57 37.1818H1121.7C1121.38 35.5 1120.63 34.0985 1119.43 32.9773C1118.25 31.8409 1116.66 31.2727 1114.68 31.2727C1113 31.2727 1111.52 31.7273 1110.25 32.6364C1108.97 33.5303 1107.98 34.8182 1107.27 36.5C1106.57 38.1818 1106.22 40.197 1106.22 42.5455C1106.22 44.9242 1106.57 46.9697 1107.27 48.6818C1107.97 50.3788 1108.94 51.6894 1110.2 52.6136C1111.47 53.5227 1112.97 53.9773 1114.68 53.9773C1115.89 53.9773 1116.97 53.75 1117.93 53.2955C1118.9 52.8258 1119.71 52.1515 1120.36 51.2727C1121.01 50.3939 1121.46 49.3258 1121.7 48.0682H1129.57C1129.37 50.5379 1128.64 52.7273 1127.38 54.6364C1126.13 56.5303 1124.41 58.0152 1122.25 59.0909C1120.08 60.1515 1117.54 60.6818 1114.61 60.6818ZM1165.79 31.8409V25.0909H1196.33V31.8409H1185.04V60H1177.08V31.8409H1165.79ZM1248.9 60.6818C1245.4 60.6818 1242.38 59.9545 1239.83 58.5C1237.3 57.0303 1235.36 54.9545 1233.99 52.2727C1232.63 49.5758 1231.95 46.4015 1231.95 42.75C1231.95 39.1591 1232.63 36.0076 1233.99 33.2955C1235.37 30.5682 1237.29 28.447 1239.76 26.9318C1242.23 25.4015 1245.14 24.6364 1248.47 24.6364C1250.62 24.6364 1252.65 24.9848 1254.56 25.6818C1256.48 26.3636 1258.18 27.4242 1259.65 28.8636C1261.14 30.303 1262.3 32.1364 1263.15 34.3636C1264 36.5758 1264.42 39.2121 1264.42 42.2727V44.7955H1235.81V39.25H1256.54C1256.52 37.6742 1256.18 36.2727 1255.51 35.0455C1254.85 33.803 1253.92 32.8258 1252.72 32.1136C1251.54 31.4015 1250.16 31.0455 1248.58 31.0455C1246.9 31.0455 1245.42 31.4545 1244.15 32.2727C1242.88 33.0758 1241.89 34.1364 1241.17 35.4545C1240.48 36.7576 1240.12 38.1894 1240.11 39.75V44.5909C1240.11 46.6212 1240.48 48.3636 1241.22 49.8182C1241.96 51.2576 1243 52.3636 1244.33 53.1364C1245.67 53.8939 1247.23 54.2727 1249.01 54.2727C1250.21 54.2727 1251.29 54.1061 1252.26 53.7727C1253.23 53.4242 1254.07 52.9167 1254.79 52.25C1255.5 51.5833 1256.04 50.7576 1256.4 49.7727L1264.08 50.6364C1263.6 52.6667 1262.67 54.4394 1261.31 55.9545C1259.96 57.4545 1258.23 58.6212 1256.13 59.4545C1254.02 60.2727 1251.61 60.6818 1248.9 60.6818ZM1323.47 50.4318L1333.84 25.0909H1340.47L1326.36 60H1320.61L1306.82 25.0909H1313.38L1323.47 50.4318ZM1311.32 25.0909V60H1303.38V25.0909H1311.32ZM1335.97 60V25.0909H1343.84V60H1335.97ZM1388 73.0909C1386.88 73.0909 1385.84 73 1384.88 72.8182C1383.94 72.6515 1383.19 72.4545 1382.63 72.2273L1384.54 65.8182C1385.74 66.1667 1386.81 66.3333 1387.75 66.3182C1388.69 66.303 1389.51 66.0076 1390.22 65.4318C1390.95 64.8712 1391.57 63.9318 1392.07 62.6136L1392.77 60.7273L1380.11 25.0909H1388.84L1396.88 51.4545H1397.25L1405.32 25.0909H1414.07L1400.09 64.2273C1399.44 66.0758 1398.57 67.6591 1397.5 68.9773C1396.42 70.3106 1395.1 71.3258 1393.54 72.0227C1392 72.7348 1390.15 73.0909 1388 73.0909Z" fill="#E6C17A"/>
    <g filter="url(#filter0_d_16_205)">
        <rect x="680" y="356" width="550" height="203" rx="20" fill="#F6EDE3"/>
        <line x1="1230" y1="458" x2="750" y2="458" stroke="#404041" stroke-width="2"/>
    </g>
    <defs>
        <filter id="filter0_d_16_205" x="680" y="256" width="572.8" height="228.8" filterUnits="userSpaceOnUse" color-interpolation-filters="sRGB">
            <feColorMatrix in="SourceAlpha" type="matrix" values="0 0 0 0 0 0 0 0 0 0 0 0 0 0 0 0 0 0 127 0" result="hardAlpha"/>
            <feOffset dx="19" dy="22"/>
            <feGaussianBlur stdDeviation="1.9"/>
            <feBlend mode="normal" in="SourceGraphic" in2="effect1_dropShadow_16_205" result="shape"/>
        </filter>
    </defs>
</svg>
